<?xml version="1.0"?>
<!-- Generated by SVGo and Plotinum VG -->
<svg width="8in" height="6in"
	xmlns="http://www.w3.org/2000/svg"
	xmlns:xlink="http://www.w3.org/1999/xlink">
<g transform="scale(1, -1) translate(0, -540)">
<path d="M0,0L720,0L720,540L0,540Z" style="fill:#FFFFFF" />
<text x="310.63" y="-525.56" transform="scale(1, -1)"
	style="font-family:Times;font-weight:normal;font-style:normal;font-size:12pt">Plotutil example</text>
<text x="380.62" y="-4.8267" transform="scale(1, -1)"
	style="font-family:Times;font-weight:normal;font-style:normal;font-size:12pt">X</text>
<text x="122.45" y="-19.502" transform="scale(1, -1)"
	style="font-family:Times;font-weight:normal;font-style:normal;font-size:10pt">1</text>
<text x="358.07" y="-19.502" transform="scale(1, -1)"
	style="font-family:Times;font-weight:normal;font-style:normal;font-size:10pt">4</text>
<text x="593.69" y="-19.502" transform="scale(1, -1)"
	style="font-family:Times;font-weight:normal;font-style:normal;font-size:10pt">7</text>
<path d="M125.58,31.538L125.58,41.538" style="fill:none;stroke:#000000;stroke-width:0.625" />
<path d="M361.2,31.538L361.2,41.538" style="fill:none;stroke:#000000;stroke-width:0.625" />
<path d="M596.81,31.538L596.81,41.538" style="fill:none;stroke:#000000;stroke-width:0.625" />
<path d="M204.12,36.538L204.12,41.538" style="fill:none;stroke:#000000;stroke-width:0.625" />
<path d="M282.66,36.538L282.66,41.538" style="fill:none;stroke:#000000;stroke-width:0.625" />
<path d="M439.74,36.538L439.74,41.538" style="fill:none;stroke:#000000;stroke-width:0.625" />
<path d="M518.27,36.538L518.27,41.538" style="fill:none;stroke:#000000;stroke-width:0.625" />
<path d="M675.35,36.538L675.35,41.538" style="fill:none;stroke:#000000;stroke-width:0.625" />
<path d="M55.208,41.538L716.88,41.538" style="fill:none;stroke:#000000;stroke-width:0.625" />
<g transform="rotate(90)">
<text x="279" y="14.443" transform="scale(1, -1)"
	style="font-family:Times;font-weight:normal;font-style:normal;font-size:12pt">Y</text>
</g>
<text x="25.52" y="-78.214" transform="scale(1, -1)"
	style="font-family:Times;font-weight:normal;font-style:normal;font-size:10pt">3</text>
<text x="25.52" y="-264.6" transform="scale(1, -1)"
	style="font-family:Times;font-weight:normal;font-style:normal;font-size:10pt">9</text>
<text x="19.27" y="-450.99" transform="scale(1, -1)"
	style="font-family:Times;font-weight:normal;font-style:normal;font-size:10pt">15</text>
<path d="M34.895,84.116L44.895,84.116" style="fill:none;stroke:#000000;stroke-width:0.625" />
<path d="M34.895,270.5L44.895,270.5" style="fill:none;stroke:#000000;stroke-width:0.625" />
<path d="M34.895,456.89L44.895,456.89" style="fill:none;stroke:#000000;stroke-width:0.625" />
<path d="M39.895,177.31L44.895,177.31" style="fill:none;stroke:#000000;stroke-width:0.625" />
<path d="M39.895,363.69L44.895,363.69" style="fill:none;stroke:#000000;stroke-width:0.625" />
<path d="M44.895,51.226L44.895,517.6" style="fill:none;stroke:#000000;stroke-width:0.625" />
<path d="M121.27,96.382L172.79,57.544L201.66,142.01L216.78,261.63L287.24,137.92L309.9,375.28L376.65,206.11L424.48,219.01L485.32,169.71L547.14,437.05L575.13,332.19L615.21,290.34L631.64,437.44L663.2,323.11L716.88,391.78" style="fill:none;stroke:#F15A60;stroke-width:1.25" />
<path d="M124.4,96.382A3.125,3.125 0 1 1 118.15,96.382A3.125,3.125 0 1 1 124.4,96.382Z" style="fill:none;stroke:#F15A60;stroke-width:0.625" />
<path d="M175.92,57.544A3.125,3.125 0 1 1 169.67,57.544A3.125,3.125 0 1 1 175.92,57.544Z" style="fill:none;stroke:#F15A60;stroke-width:0.625" />
<path d="M204.79,142.01L204.79,142.01A3.125,3.125 0 1 1 198.54,142.01A3.125,3.125 0 1 1 204.79,142.01Z" style="fill:none;stroke:#F15A60;stroke-width:0.625" />
<path d="M219.9,261.63A3.125,3.125 0 1 1 213.65,261.63A3.125,3.125 0 1 1 219.9,261.63Z" style="fill:none;stroke:#F15A60;stroke-width:0.625" />
<path d="M290.36,137.92A3.125,3.125 0 1 1 284.11,137.92A3.125,3.125 0 1 1 290.36,137.92Z" style="fill:none;stroke:#F15A60;stroke-width:0.625" />
<path d="M313.03,375.28A3.125,3.125 0 1 1 306.78,375.28A3.125,3.125 0 1 1 313.03,375.28Z" style="fill:none;stroke:#F15A60;stroke-width:0.625" />
<path d="M379.77,206.11A3.125,3.125 0 1 1 373.52,206.11A3.125,3.125 0 1 1 379.77,206.11Z" style="fill:none;stroke:#F15A60;stroke-width:0.625" />
<path d="M427.61,219.01A3.125,3.125 0 1 1 421.36,219.01A3.125,3.125 0 1 1 427.61,219.01Z" style="fill:none;stroke:#F15A60;stroke-width:0.625" />
<path d="M488.45,169.71L488.45,169.71A3.125,3.125 0 1 1 482.2,169.71A3.125,3.125 0 1 1 488.45,169.71Z" style="fill:none;stroke:#F15A60;stroke-width:0.625" />
<path d="M550.26,437.05A3.125,3.125 0 1 1 544.01,437.05A3.125,3.125 0 1 1 550.26,437.05Z" style="fill:none;stroke:#F15A60;stroke-width:0.625" />
<path d="M578.26,332.19A3.125,3.125 0 1 1 572.01,332.19A3.125,3.125 0 1 1 578.26,332.19Z" style="fill:none;stroke:#F15A60;stroke-width:0.625" />
<path d="M618.33,290.34A3.125,3.125 0 1 1 612.08,290.34A3.125,3.125 0 1 1 618.33,290.34Z" style="fill:none;stroke:#F15A60;stroke-width:0.625" />
<path d="M634.76,437.44A3.125,3.125 0 1 1 628.51,437.44A3.125,3.125 0 1 1 634.76,437.44Z" style="fill:none;stroke:#F15A60;stroke-width:0.625" />
<path d="M666.33,323.11A3.125,3.125 0 1 1 660.08,323.11A3.125,3.125 0 1 1 666.33,323.11Z" style="fill:none;stroke:#F15A60;stroke-width:0.625" />
<path d="M720,391.78A3.125,3.125 0 1 1 713.75,391.78A3.125,3.125 0 1 1 720,391.78Z" style="fill:none;stroke:#F15A60;stroke-width:0.625" />
<path d="M55.208,92.308L67.09,226.04L91.765,123.08L142.64,140.46L185.23,51.226L225.92,97.362L285.3,272.36L352.11,137.57L424.61,432.72L461.62,414.22L464.93,410.89L498.64,469.36L501.22,417.73L547.14,453.04L550.6,350.28" style="fill:none;stroke:#7AC36A;stroke-width:1.25;stroke-dasharray:7.5,2.5" />
<path d="M52.54,89.641L57.875,89.641L57.875,94.975L52.54,94.975Z" style="fill:none;stroke:#7AC36A;stroke-width:0.625" />
<path d="M64.423,223.37L69.757,223.37L69.757,228.71L64.423,228.71Z" style="fill:none;stroke:#7AC36A;stroke-width:0.625" />
<path d="M89.097,120.41L94.432,120.41L94.432,125.75L89.097,125.75Z" style="fill:none;stroke:#7AC36A;stroke-width:0.625" />
<path d="M139.97,137.79L145.3,137.79L145.3,143.12L139.97,143.12Z" style="fill:none;stroke:#7AC36A;stroke-width:0.625" />
<path d="M182.56,48.558L187.9,48.558L187.9,53.893L182.56,53.893Z" style="fill:none;stroke:#7AC36A;stroke-width:0.625" />
<path d="M223.25,94.695L228.59,94.695L228.59,100.03L223.25,100.03Z" style="fill:none;stroke:#7AC36A;stroke-width:0.625" />
<path d="M282.63,269.69L287.96,269.69L287.96,275.03L282.63,275.03Z" style="fill:none;stroke:#7AC36A;stroke-width:0.625" />
<path d="M349.44,134.91L354.77,134.91L354.77,140.24L349.44,140.24Z" style="fill:none;stroke:#7AC36A;stroke-width:0.625" />
<path d="M421.94,430.05L427.28,430.05L427.28,435.39L421.94,435.39Z" style="fill:none;stroke:#7AC36A;stroke-width:0.625" />
<path d="M458.95,411.55L464.29,411.55L464.29,416.88L458.95,416.88Z" style="fill:none;stroke:#7AC36A;stroke-width:0.625" />
<path d="M462.26,408.22L467.59,408.22L467.59,413.56L462.26,413.56Z" style="fill:none;stroke:#7AC36A;stroke-width:0.625" />
<path d="M495.97,466.7L501.31,466.7L501.31,472.03L495.97,472.03Z" style="fill:none;stroke:#7AC36A;stroke-width:0.625" />
<path d="M498.55,415.06L503.89,415.06L503.89,420.4L498.55,420.4Z" style="fill:none;stroke:#7AC36A;stroke-width:0.625" />
<path d="M544.47,450.38L549.81,450.38L549.81,455.71L544.47,455.71Z" style="fill:none;stroke:#7AC36A;stroke-width:0.625" />
<path d="M547.94,347.61L553.27,347.61L553.27,352.95L547.94,352.95Z" style="fill:none;stroke:#7AC36A;stroke-width:0.625" />
<path d="M96.746,170.1L116.03,53.958L177.7,302.6L212.72,146.42L242.6,356.77L281.47,124L341.2,241.44L359.24,201.54L431.53,208.3L500.48,422.25L552.06,462.02L588.75,463.3L649.48,501.54L649.78,517.6L666.87,512.88" style="fill:none;stroke:#5A9BD4;stroke-width:1.25;stroke-dasharray:2.5,2.5" />
<path d="M96.746,174.01L93.363,168.15L100.13,168.15Z" style="fill:none;stroke:#5A9BD4;stroke-width:0.625" />
<path d="M116.03,57.864L112.64,52.004L119.41,52.004Z" style="fill:none;stroke:#5A9BD4;stroke-width:0.625" />
<path d="M177.7,306.51L174.32,300.65L181.08,300.65Z" style="fill:none;stroke:#5A9BD4;stroke-width:0.625" />
<path d="M212.72,150.32L209.34,144.46L216.11,144.46Z" style="fill:none;stroke:#5A9BD4;stroke-width:0.625" />
<path d="M242.6,360.67L239.22,354.81L245.99,354.81Z" style="fill:none;stroke:#5A9BD4;stroke-width:0.625" />
<path d="M281.47,127.9L278.09,122.04L284.86,122.04Z" style="fill:none;stroke:#5A9BD4;stroke-width:0.625" />
<path d="M341.2,245.35L337.82,239.49L344.59,239.49Z" style="fill:none;stroke:#5A9BD4;stroke-width:0.625" />
<path d="M359.24,205.45L355.86,199.59L362.63,199.59Z" style="fill:none;stroke:#5A9BD4;stroke-width:0.625" />
<path d="M431.53,212.21L428.15,206.35L434.92,206.35Z" style="fill:none;stroke:#5A9BD4;stroke-width:0.625" />
<path d="M500.48,426.16L497.1,420.3L503.87,420.3Z" style="fill:none;stroke:#5A9BD4;stroke-width:0.625" />
<path d="M552.06,465.93L548.67,460.07L555.44,460.07Z" style="fill:none;stroke:#5A9BD4;stroke-width:0.625" />
<path d="M588.75,467.21L585.36,461.35L592.13,461.35Z" style="fill:none;stroke:#5A9BD4;stroke-width:0.625" />
<path d="M649.48,505.45L646.09,499.59L652.86,499.59Z" style="fill:none;stroke:#5A9BD4;stroke-width:0.625" />
<path d="M649.78,521.51L646.4,515.65L653.16,515.65Z" style="fill:none;stroke:#5A9BD4;stroke-width:0.625" />
<path d="M666.87,516.78L663.49,510.93L670.25,510.93Z" style="fill:none;stroke:#5A9BD4;stroke-width:0.625" />
<path d="M695,84.905L720,84.905" style="fill:none;stroke:#F15A60;stroke-width:1.25" />
<path d="M710.62,84.905A3.125,3.125 0 1 1 704.38,84.905A3.125,3.125 0 1 1 710.62,84.905Z" style="fill:none;stroke:#F15A60;stroke-width:0.625" />
<text x="663.74" y="-77.822" transform="scale(1, -1)"
	style="font-family:Times;font-weight:normal;font-style:normal;font-size:12pt">First</text>
<path d="M695,70.183L720,70.183" style="fill:none;stroke:#7AC36A;stroke-width:1.25;stroke-dasharray:7.5,2.5" />
<path d="M704.83,67.516L710.17,67.516L710.17,72.85L704.83,72.85Z" style="fill:none;stroke:#7AC36A;stroke-width:0.625" />
<text x="647.09" y="-63.101" transform="scale(1, -1)"
	style="font-family:Times;font-weight:normal;font-style:normal;font-size:12pt">Second</text>
<path d="M695,55.461L720,55.461" style="fill:none;stroke:#5A9BD4;stroke-width:1.25;stroke-dasharray:2.5,2.5" />
<path d="M707.5,59.368L704.12,53.508L710.88,53.508Z" style="fill:none;stroke:#5A9BD4;stroke-width:0.625" />
<text x="657.92" y="-48.379" transform="scale(1, -1)"
	style="font-family:Times;font-weight:normal;font-style:normal;font-size:12pt">Third</text>
</g>
</svg>
