<?xml version="1.0"?>
<!-- Generated by SVGo and Plotinum VG -->
<svg width="8in" height="6in"
	xmlns="http://www.w3.org/2000/svg"
	xmlns:xlink="http://www.w3.org/1999/xlink">
<g transform="scale(1, -1) translate(0, -540)">
<path d="M0,0L720,0L720,540L0,540Z" style="fill:#FFFFFF" />
<text x="312.71" y="-525.56" transform="scale(1, -1)"
	style="font-family:Times;font-weight:normal;font-style:normal;font-size:12pt">Points Example</text>
<text x="379.06" y="-4.8267" transform="scale(1, -1)"
	style="font-family:Times;font-weight:normal;font-style:normal;font-size:12pt">X</text>
<text x="119.66" y="-19.502" transform="scale(1, -1)"
	style="font-family:Times;font-weight:normal;font-style:normal;font-size:10pt">1</text>
<text x="356.39" y="-19.502" transform="scale(1, -1)"
	style="font-family:Times;font-weight:normal;font-style:normal;font-size:10pt">4</text>
<text x="593.12" y="-19.502" transform="scale(1, -1)"
	style="font-family:Times;font-weight:normal;font-style:normal;font-size:10pt">7</text>
<path d="M122.79,31.538L122.79,41.538" style="fill:none;stroke:#000000;stroke-width:0.625" />
<path d="M359.52,31.538L359.52,41.538" style="fill:none;stroke:#000000;stroke-width:0.625" />
<path d="M596.25,31.538L596.25,41.538" style="fill:none;stroke:#000000;stroke-width:0.625" />
<path d="M201.7,36.538L201.7,41.538" style="fill:none;stroke:#000000;stroke-width:0.625" />
<path d="M280.61,36.538L280.61,41.538" style="fill:none;stroke:#000000;stroke-width:0.625" />
<path d="M438.43,36.538L438.43,41.538" style="fill:none;stroke:#000000;stroke-width:0.625" />
<path d="M517.34,36.538L517.34,41.538" style="fill:none;stroke:#000000;stroke-width:0.625" />
<path d="M675.16,36.538L675.16,41.538" style="fill:none;stroke:#000000;stroke-width:0.625" />
<path d="M52.083,41.538L716.88,41.538" style="fill:none;stroke:#000000;stroke-width:0.625" />
<g transform="rotate(90)">
<text x="277.62" y="14.443" transform="scale(1, -1)"
	style="font-family:Times;font-weight:normal;font-style:normal;font-size:12pt">Y</text>
</g>
<text x="25.52" y="-75.66" transform="scale(1, -1)"
	style="font-family:Times;font-weight:normal;font-style:normal;font-size:10pt">3</text>
<text x="25.52" y="-263.14" transform="scale(1, -1)"
	style="font-family:Times;font-weight:normal;font-style:normal;font-size:10pt">9</text>
<text x="19.27" y="-450.63" transform="scale(1, -1)"
	style="font-family:Times;font-weight:normal;font-style:normal;font-size:10pt">15</text>
<path d="M34.895,81.562L44.895,81.562" style="fill:none;stroke:#000000;stroke-width:0.625" />
<path d="M34.895,269.05L44.895,269.05" style="fill:none;stroke:#000000;stroke-width:0.625" />
<path d="M34.895,456.53L44.895,456.53" style="fill:none;stroke:#000000;stroke-width:0.625" />
<path d="M39.895,175.3L44.895,175.3" style="fill:none;stroke:#000000;stroke-width:0.625" />
<path d="M39.895,362.79L44.895,362.79" style="fill:none;stroke:#000000;stroke-width:0.625" />
<path d="M44.895,48.477L44.895,517.6" style="fill:none;stroke:#000000;stroke-width:0.625" />
<path d="M122.79,48.477L122.79,517.6" style="fill:none;stroke:#808080;stroke-width:0.3125" />
<path d="M359.52,48.477L359.52,517.6" style="fill:none;stroke:#808080;stroke-width:0.3125" />
<path d="M596.25,48.477L596.25,517.6" style="fill:none;stroke:#808080;stroke-width:0.3125" />
<path d="M52.083,81.562L716.88,81.562" style="fill:none;stroke:#808080;stroke-width:0.3125" />
<path d="M52.083,269.05L716.88,269.05" style="fill:none;stroke:#808080;stroke-width:0.3125" />
<path d="M52.083,456.53L716.88,456.53" style="fill:none;stroke:#808080;stroke-width:0.3125" />
<path d="M121.59,93.9L121.59,93.9A3.125,3.125 0 1 1 115.34,93.9A3.125,3.125 0 1 1 121.59,93.9Z" style="fill:none;stroke:#FF0080;stroke-width:0.625" />
<path d="M173.35,54.833L173.35,54.833A3.125,3.125 0 1 1 167.1,54.833A3.125,3.125 0 1 1 173.35,54.833Z" style="fill:none;stroke:#FF0080;stroke-width:0.625" />
<path d="M202.35,139.79A3.125,3.125 0 1 1 196.1,139.79A3.125,3.125 0 1 1 202.35,139.79Z" style="fill:none;stroke:#FF0080;stroke-width:0.625" />
<path d="M217.54,260.12L217.54,260.12A3.125,3.125 0 1 1 211.29,260.12A3.125,3.125 0 1 1 217.54,260.12Z" style="fill:none;stroke:#FF0080;stroke-width:0.625" />
<path d="M288.33,135.68L288.33,135.68A3.125,3.125 0 1 1 282.08,135.68A3.125,3.125 0 1 1 288.33,135.68Z" style="fill:none;stroke:#FF0080;stroke-width:0.625" />
<path d="M311.11,374.44L311.11,374.44A3.125,3.125 0 1 1 304.86,374.44A3.125,3.125 0 1 1 311.11,374.44Z" style="fill:none;stroke:#FF0080;stroke-width:0.625" />
<path d="M378.16,204.28L378.16,204.28A3.125,3.125 0 1 1 371.91,204.28A3.125,3.125 0 1 1 378.16,204.28Z" style="fill:none;stroke:#FF0080;stroke-width:0.625" />
<path d="M426.23,217.25L426.23,217.25A3.125,3.125 0 1 1 419.98,217.25A3.125,3.125 0 1 1 426.23,217.25Z" style="fill:none;stroke:#FF0080;stroke-width:0.625" />
<path d="M487.35,167.66L487.35,167.66A3.125,3.125 0 1 1 481.1,167.66A3.125,3.125 0 1 1 487.35,167.66Z" style="fill:none;stroke:#FF0080;stroke-width:0.625" />
<path d="M549.46,436.58A3.125,3.125 0 1 1 543.21,436.58A3.125,3.125 0 1 1 549.46,436.58Z" style="fill:none;stroke:#FF0080;stroke-width:0.625" />
<path d="M577.59,331.1A3.125,3.125 0 1 1 571.34,331.1A3.125,3.125 0 1 1 577.59,331.1Z" style="fill:none;stroke:#FF0080;stroke-width:0.625" />
<path d="M617.85,289L617.85,289A3.125,3.125 0 1 1 611.6,289A3.125,3.125 0 1 1 617.85,289Z" style="fill:none;stroke:#FF0080;stroke-width:0.625" />
<path d="M634.36,436.97A3.125,3.125 0 1 1 628.11,436.97A3.125,3.125 0 1 1 634.36,436.97Z" style="fill:none;stroke:#FF0080;stroke-width:0.625" />
<path d="M666.07,321.96A3.125,3.125 0 1 1 659.82,321.96A3.125,3.125 0 1 1 666.07,321.96Z" style="fill:none;stroke:#FF0080;stroke-width:0.625" />
<path d="M720,391.04A3.125,3.125 0 1 1 713.75,391.04A3.125,3.125 0 1 1 720,391.04Z" style="fill:none;stroke:#FF0080;stroke-width:0.625" />
<path d="M52.083,89.802L64.021,224.32L88.812,120.75L139.93,138.23L182.72,48.477L223.6,94.886L283.26,270.92L350.38,135.33L423.23,432.22L460.41,413.61L463.74,410.26L497.61,469.08L500.2,417.14L546.34,452.66L549.82,349.3" style="fill:none;stroke:#0000FF;stroke-width:1.25;stroke-dasharray:6.25,6.25" />
<path d="M93.817,168.05L113.19,51.226L175.15,301.34L210.34,144.23L240.36,355.82L279.42,121.68L339.43,239.82L357.56,199.68L430.19,206.48L499.46,421.69L551.28,461.69L588.14,462.98L649.16,501.45L649.46,517.6L666.63,512.85" style="fill:none;stroke:#00FF00;stroke-width:1.25" />
<path d="M93.817,171.96L90.434,166.1L97.2,166.1Z" style="fill:#FF0000" />
<path d="M113.19,55.132L109.81,49.272L116.57,49.272Z" style="fill:#FF0000" />
<path d="M175.15,305.24L171.77,299.38L178.54,299.38Z" style="fill:#FF0000" />
<path d="M210.34,148.14L206.96,142.28L213.73,142.28Z" style="fill:#FF0000" />
<path d="M240.36,359.73L236.98,353.87L243.75,353.87Z" style="fill:#FF0000" />
<path d="M279.42,125.58L276.03,119.73L282.8,119.73Z" style="fill:#FF0000" />
<path d="M339.43,243.72L336.05,237.86L342.81,237.86Z" style="fill:#FF0000" />
<path d="M357.56,203.58L354.17,197.72L360.94,197.72Z" style="fill:#FF0000" />
<path d="M430.19,210.38L426.8,204.52L433.57,204.52Z" style="fill:#FF0000" />
<path d="M499.46,425.6L496.08,419.74L502.84,419.74Z" style="fill:#FF0000" />
<path d="M551.28,465.6L547.9,459.74L554.66,459.74Z" style="fill:#FF0000" />
<path d="M588.14,466.89L584.76,461.03L591.52,461.03Z" style="fill:#FF0000" />
<path d="M649.16,505.36L645.78,499.5L652.54,499.5Z" style="fill:#FF0000" />
<path d="M649.46,521.51L646.08,515.65L652.85,515.65Z" style="fill:#FF0000" />
<path d="M666.63,516.76L663.25,510.9L670.02,510.9Z" style="fill:#FF0000" />
<path d="M710.62,84.905A3.125,3.125 0 1 1 704.38,84.905A3.125,3.125 0 1 1 710.62,84.905Z" style="fill:none;stroke:#FF0080;stroke-width:0.625" />
<text x="652.11" y="-77.822" transform="scale(1, -1)"
	style="font-family:Times;font-weight:normal;font-style:normal;font-size:12pt">scatter</text>
<path d="M695,70.183L720,70.183" style="fill:none;stroke:#0000FF;stroke-width:1.25;stroke-dasharray:6.25,6.25" />
<text x="668.76" y="-63.101" transform="scale(1, -1)"
	style="font-family:Times;font-weight:normal;font-style:normal;font-size:12pt">line</text>
<path d="M695,55.461L720,55.461" style="fill:none;stroke:#00FF00;stroke-width:1.25" />
<path d="M707.5,59.368L704.12,53.508L710.88,53.508Z" style="fill:#FF0000" />
<text x="628.33" y="-48.379" transform="scale(1, -1)"
	style="font-family:Times;font-weight:normal;font-style:normal;font-size:12pt">line points</text>
</g>
</svg>
