<?xml version="1.0"?>
<!-- Generated by SVGo and Plotinum VG -->
<svg width="3.937in" height="1.9685in"
	xmlns="http://www.w3.org/2000/svg"
	xmlns:xlink="http://www.w3.org/1999/xlink">
<g transform="scale(1, -1) translate(0, -177.17)">
<path d="M0,0L354.33,0L354.33,177.17L0,177.17Z" style="fill:#FFFFFF" />
<text x="141.4" y="-162.72" transform="scale(1, -1)"
	style="font-family:Times;font-weight:normal;font-style:normal;font-size:12pt">Time Series</text>
<text x="79.641" y="-12.732" transform="scale(1, -1)"
	style="font-family:Times;font-weight:normal;font-style:normal;font-size:10pt">2008-01-10</text>
<text x="94.568" y="-0.23193" transform="scale(1, -1)"
	style="font-family:Times;font-weight:normal;font-style:normal;font-size:10pt">21:20</text>
<text x="176.21" y="-12.732" transform="scale(1, -1)"
	style="font-family:Times;font-weight:normal;font-style:normal;font-size:10pt">2011-03-13</text>
<text x="190.91" y="-0.23193" transform="scale(1, -1)"
	style="font-family:Times;font-weight:normal;font-style:normal;font-size:10pt">07:06</text>
<text x="272.32" y="-12.732" transform="scale(1, -1)"
	style="font-family:Times;font-weight:normal;font-style:normal;font-size:10pt">2014-05-13</text>
<text x="287.25" y="-0.23193" transform="scale(1, -1)"
	style="font-family:Times;font-weight:normal;font-style:normal;font-size:10pt">16:53</text>
<path d="M108.8,28.326L108.8,38.326" style="fill:none;stroke:#000000;stroke-width:0.625" />
<path d="M205.14,28.326L205.14,38.326" style="fill:none;stroke:#000000;stroke-width:0.625" />
<path d="M301.48,28.326L301.48,38.326" style="fill:none;stroke:#000000;stroke-width:0.625" />
<path d="M89.536,33.326L89.536,38.326" style="fill:none;stroke:#000000;stroke-width:0.625" />
<path d="M128.07,33.326L128.07,38.326" style="fill:none;stroke:#000000;stroke-width:0.625" />
<path d="M147.34,33.326L147.34,38.326" style="fill:none;stroke:#000000;stroke-width:0.625" />
<path d="M166.61,33.326L166.61,38.326" style="fill:none;stroke:#000000;stroke-width:0.625" />
<path d="M185.88,33.326L185.88,38.326" style="fill:none;stroke:#000000;stroke-width:0.625" />
<path d="M224.41,33.326L224.41,38.326" style="fill:none;stroke:#000000;stroke-width:0.625" />
<path d="M243.68,33.326L243.68,38.326" style="fill:none;stroke:#000000;stroke-width:0.625" />
<path d="M262.95,33.326L262.95,38.326" style="fill:none;stroke:#000000;stroke-width:0.625" />
<path d="M282.22,33.326L282.22,38.326" style="fill:none;stroke:#000000;stroke-width:0.625" />
<path d="M320.75,33.326L320.75,38.326" style="fill:none;stroke:#000000;stroke-width:0.625" />
<path d="M340.02,33.326L340.02,38.326" style="fill:none;stroke:#000000;stroke-width:0.625" />
<path d="M77.603,38.326L351.21,38.326" style="fill:none;stroke:#000000;stroke-width:0.625" />
<g transform="rotate(90)">
<text x="41.407" y="18.713" transform="scale(1, -1)"
	style="font-family:Times;font-weight:normal;font-style:normal;font-size:12pt">Number of Gophers</text>
<text x="72.641" y="33.713" transform="scale(1, -1)"
	style="font-family:Times;font-weight:normal;font-style:normal;font-size:12pt">(Billions)</text>
</g>
<text x="38.54" y="-54.286" transform="scale(1, -1)"
	style="font-family:Times;font-weight:normal;font-style:normal;font-size:10pt">1.2</text>
<text x="38.54" y="-91.877" transform="scale(1, -1)"
	style="font-family:Times;font-weight:normal;font-style:normal;font-size:10pt">1.3</text>
<text x="38.54" y="-129.47" transform="scale(1, -1)"
	style="font-family:Times;font-weight:normal;font-style:normal;font-size:10pt">1.4</text>
<path d="M57.29,60.188L67.29,60.188" style="fill:none;stroke:#000000;stroke-width:0.625" />
<path d="M57.29,97.779L67.29,97.779" style="fill:none;stroke:#000000;stroke-width:0.625" />
<path d="M57.29,135.37L67.29,135.37" style="fill:none;stroke:#000000;stroke-width:0.625" />
<path d="M62.29,52.67L67.29,52.67" style="fill:none;stroke:#000000;stroke-width:0.625" />
<path d="M62.29,67.706L67.29,67.706" style="fill:none;stroke:#000000;stroke-width:0.625" />
<path d="M62.29,75.225L67.29,75.225" style="fill:none;stroke:#000000;stroke-width:0.625" />
<path d="M62.29,82.743L67.29,82.743" style="fill:none;stroke:#000000;stroke-width:0.625" />
<path d="M62.29,90.261L67.29,90.261" style="fill:none;stroke:#000000;stroke-width:0.625" />
<path d="M62.29,105.3L67.29,105.3" style="fill:none;stroke:#000000;stroke-width:0.625" />
<path d="M62.29,112.82L67.29,112.82" style="fill:none;stroke:#000000;stroke-width:0.625" />
<path d="M62.29,120.33L67.29,120.33" style="fill:none;stroke:#000000;stroke-width:0.625" />
<path d="M62.29,127.85L67.29,127.85" style="fill:none;stroke:#000000;stroke-width:0.625" />
<path d="M62.29,142.89L67.29,142.89" style="fill:none;stroke:#000000;stroke-width:0.625" />
<path d="M62.29,150.41L67.29,150.41" style="fill:none;stroke:#000000;stroke-width:0.625" />
<path d="M67.29,48.014L67.29,154.77" style="fill:none;stroke:#000000;stroke-width:0.625" />
<path d="M108.8,48.014L108.8,154.77" style="fill:none;stroke:#808080;stroke-width:0.3125" />
<path d="M205.14,48.014L205.14,154.77" style="fill:none;stroke:#808080;stroke-width:0.3125" />
<path d="M301.48,48.014L301.48,154.77" style="fill:none;stroke:#808080;stroke-width:0.3125" />
<path d="M77.603,60.188L351.21,60.188" style="fill:none;stroke:#808080;stroke-width:0.3125" />
<path d="M77.603,97.779L351.21,97.779" style="fill:none;stroke:#808080;stroke-width:0.3125" />
<path d="M77.603,135.37L351.21,135.37" style="fill:none;stroke:#808080;stroke-width:0.3125" />
<path d="M77.603,48.014L107.98,59.869L138.45,71.756L168.83,83.61L199.21,95.465L229.6,107.32L260.06,119.21L290.44,131.06L320.82,142.92L351.21,154.77" style="fill:none;stroke:#00FF00;stroke-width:1.25" />
<path d="M80.728,48.014A3.125,3.125 0 1 1 74.478,48.014A3.125,3.125 0 1 1 80.728,48.014Z" style="fill:#FF0000" />
<path d="M111.11,59.869L111.11,59.869A3.125,3.125 0 1 1 104.86,59.869A3.125,3.125 0 1 1 111.11,59.869Z" style="fill:#FF0000" />
<path d="M141.57,71.756A3.125,3.125 0 1 1 135.32,71.756A3.125,3.125 0 1 1 141.57,71.756Z" style="fill:#FF0000" />
<path d="M171.96,83.61L171.96,83.61A3.125,3.125 0 1 1 165.71,83.61A3.125,3.125 0 1 1 171.96,83.61Z" style="fill:#FF0000" />
<path d="M202.34,95.465L202.34,95.465A3.125,3.125 0 1 1 196.09,95.465A3.125,3.125 0 1 1 202.34,95.465Z" style="fill:#FF0000" />
<path d="M232.72,107.32A3.125,3.125 0 1 1 226.47,107.32A3.125,3.125 0 1 1 232.72,107.32Z" style="fill:#FF0000" />
<path d="M263.19,119.21A3.125,3.125 0 1 1 256.94,119.21A3.125,3.125 0 1 1 263.19,119.21Z" style="fill:#FF0000" />
<path d="M293.57,131.06A3.125,3.125 0 1 1 287.32,131.06A3.125,3.125 0 1 1 293.57,131.06Z" style="fill:#FF0000" />
<path d="M323.95,142.92L323.95,142.92A3.125,3.125 0 1 1 317.7,142.92A3.125,3.125 0 1 1 323.95,142.92Z" style="fill:#FF0000" />
<path d="M354.33,154.77L354.33,154.77A3.125,3.125 0 1 1 348.08,154.77A3.125,3.125 0 1 1 354.33,154.77Z" style="fill:#FF0000" />
</g>
</svg>
