<?xml version="1.0"?>
<!-- Generated by SVGo and Plotinum VG -->
<svg width="9.8425in" height="5.9055in"
	xmlns="http://www.w3.org/2000/svg"
	xmlns:xlink="http://www.w3.org/1999/xlink">
<g transform="scale(1, -1) translate(0, -531.5)">
<path d="M0,0L885.83,0L885.83,531.5L0,531.5Z" style="fill:#FFFFFF" />
<text x="411.11" y="-517.05" transform="scale(1, -1)"
	style="font-family:Times;font-weight:normal;font-style:normal;font-size:12pt">Date/Time</text>
<text x="462.78" y="-4.8267" transform="scale(1, -1)"
	style="font-family:Times;font-weight:normal;font-style:normal;font-size:12pt">Date</text>
<text x="78.753" y="-19.502" transform="scale(1, -1)"
	style="font-family:Times;font-weight:normal;font-style:normal;font-size:10pt">2018-01-01</text>
<text x="287.48" y="-19.502" transform="scale(1, -1)"
	style="font-family:Times;font-weight:normal;font-style:normal;font-size:10pt">2018-01-03</text>
<text x="496.2" y="-19.502" transform="scale(1, -1)"
	style="font-family:Times;font-weight:normal;font-style:normal;font-size:10pt">2018-01-06</text>
<text x="704.93" y="-19.502" transform="scale(1, -1)"
	style="font-family:Times;font-weight:normal;font-style:normal;font-size:10pt">2018-01-08</text>
<path d="M107.92,31.538L107.92,41.538" style="fill:none;stroke:#000000;stroke-width:0.625" />
<path d="M316.64,31.538L316.64,41.538" style="fill:none;stroke:#000000;stroke-width:0.625" />
<path d="M525.37,31.538L525.37,41.538" style="fill:none;stroke:#000000;stroke-width:0.625" />
<path d="M734.09,31.538L734.09,41.538" style="fill:none;stroke:#000000;stroke-width:0.625" />
<path d="M212.28,36.538L212.28,41.538" style="fill:none;stroke:#000000;stroke-width:0.625" />
<path d="M421,36.538L421,41.538" style="fill:none;stroke:#000000;stroke-width:0.625" />
<path d="M629.73,36.538L629.73,41.538" style="fill:none;stroke:#000000;stroke-width:0.625" />
<path d="M838.45,36.538L838.45,41.538" style="fill:none;stroke:#000000;stroke-width:0.625" />
<path d="M71.18,41.538L882.7,41.538" style="fill:none;stroke:#000000;stroke-width:0.625" />
<g transform="rotate(90)">
<text x="264.6" y="14.443" transform="scale(1, -1)"
	style="font-family:Times;font-weight:normal;font-style:normal;font-size:12pt">Time</text>
</g>
<text x="19.27" y="-95.639" transform="scale(1, -1)"
	style="font-family:Times;font-weight:normal;font-style:normal;font-size:10pt">00:30</text>
<text x="19.27" y="-263.36" transform="scale(1, -1)"
	style="font-family:Times;font-weight:normal;font-style:normal;font-size:10pt">02:10</text>
<text x="19.27" y="-431.08" transform="scale(1, -1)"
	style="font-family:Times;font-weight:normal;font-style:normal;font-size:10pt">03:50</text>
<path d="M50.868,101.54L60.868,101.54" style="fill:none;stroke:#000000;stroke-width:0.625" />
<path d="M50.868,269.26L60.868,269.26" style="fill:none;stroke:#000000;stroke-width:0.625" />
<path d="M50.868,436.98L60.868,436.98" style="fill:none;stroke:#000000;stroke-width:0.625" />
<path d="M55.868,185.4L60.868,185.4" style="fill:none;stroke:#000000;stroke-width:0.625" />
<path d="M55.868,353.12L60.868,353.12" style="fill:none;stroke:#000000;stroke-width:0.625" />
<path d="M60.868,51.226L60.868,509.1" style="fill:none;stroke:#000000;stroke-width:0.625" />
<path d="M107.92,51.226L107.92,509.1" style="fill:none;stroke:#808080;stroke-width:0.3125" />
<path d="M316.64,51.226L316.64,509.1" style="fill:none;stroke:#808080;stroke-width:0.3125" />
<path d="M525.37,51.226L525.37,509.1" style="fill:none;stroke:#808080;stroke-width:0.3125" />
<path d="M734.09,51.226L734.09,509.1" style="fill:none;stroke:#808080;stroke-width:0.3125" />
<path d="M71.18,101.54L882.7,101.54" style="fill:none;stroke:#808080;stroke-width:0.3125" />
<path d="M71.18,269.26L882.7,269.26" style="fill:none;stroke:#808080;stroke-width:0.3125" />
<path d="M71.18,436.98L882.7,436.98" style="fill:none;stroke:#808080;stroke-width:0.3125" />
<path d="M71.18,51.226L161.35,405.11L251.52,155.21L341.69,509.1L431.86,259.2L522.03,109.93L612.19,363.18L702.36,213.91L792.53,467.17L882.7,317.9" style="fill:none;stroke:#00FF00;stroke-width:1.25" />
<path d="M74.305,51.226A3.125,3.125 0 1 1 68.055,51.226A3.125,3.125 0 1 1 74.305,51.226Z" style="fill:#FF0000" />
<path d="M164.47,405.11A3.125,3.125 0 1 1 158.22,405.11A3.125,3.125 0 1 1 164.47,405.11Z" style="fill:#FF0000" />
<path d="M254.64,155.21L254.64,155.21A3.125,3.125 0 1 1 248.39,155.21A3.125,3.125 0 1 1 254.64,155.21Z" style="fill:#FF0000" />
<path d="M344.81,509.1A3.125,3.125 0 1 1 338.56,509.1A3.125,3.125 0 1 1 344.81,509.1Z" style="fill:#FF0000" />
<path d="M434.98,259.2L434.98,259.2A3.125,3.125 0 1 1 428.73,259.2A3.125,3.125 0 1 1 434.98,259.2Z" style="fill:#FF0000" />
<path d="M525.15,109.93A3.125,3.125 0 1 1 518.9,109.93A3.125,3.125 0 1 1 525.15,109.93Z" style="fill:#FF0000" />
<path d="M615.32,363.18A3.125,3.125 0 1 1 609.07,363.18A3.125,3.125 0 1 1 615.32,363.18Z" style="fill:#FF0000" />
<path d="M705.49,213.91A3.125,3.125 0 1 1 699.24,213.91A3.125,3.125 0 1 1 705.49,213.91Z" style="fill:#FF0000" />
<path d="M795.66,467.17L795.66,467.17A3.125,3.125 0 1 1 789.41,467.17A3.125,3.125 0 1 1 795.66,467.17Z" style="fill:#FF0000" />
<path d="M885.83,317.9L885.83,317.9A3.125,3.125 0 1 1 879.58,317.9A3.125,3.125 0 1 1 885.83,317.9Z" style="fill:#FF0000" />
</g>
</svg>
